<?xml version="1.0" standalone="no"?><!DOCTYPE svg PUBLIC "-//W3C//DTD SVG 1.1//EN" "http://www.w3.org/Graphics/SVG/1.1/DTD/svg11.dtd"><svg t="1623030374427" class="icon" viewBox="0 0 1024 1024" version="1.1" xmlns="http://www.w3.org/2000/svg" p-id="59841" xmlns:xlink="http://www.w3.org/1999/xlink" width="64" height="64"><defs><style type="text/css"></style></defs><path d="M627.3921 750.991116 421.772023 750.991116c-15.479553 0-28.039613 12.549827-28.039613 28.039613 0 15.488763 12.559037 28.039613 28.039613 28.039613l205.620078 0c15.479553 0 28.039613-12.549827 28.039613-28.039613C655.431713 763.541967 642.872676 750.991116 627.3921 750.991116z" p-id="59842" fill="#8a8a8a"></path><path d="M571.313897 844.455811l-93.463672 0c-15.479553 0-28.039613 12.549827-28.039613 28.039613s12.559037 28.039613 28.039613 28.039613l93.463672 0c15.479553 0 28.039613-12.549827 28.039613-28.039613S586.79345 844.455811 571.313897 844.455811z" p-id="59843" fill="#8a8a8a"></path><path d="M512 123.465986c-149.049664 0-270.297123 119.111818-270.297123 265.514189 0 95.389534 50.822502 181.629687 133.798309 229.214449l15.231913 83.880409c2.445702 13.544481 14.256702 23.037692 27.54638 23.037692 1.660826 0 3.358491-0.155543 5.03876-0.456395 15.243169-2.774183 25.355481-17.369599 22.581298-32.602535l-17.633612-97.105618c-1.408069-7.78122-5.957689-14.184047-12.06785-18.254759l0.128937-0.265036c-73.128531-35.760458-118.54593-107.584274-118.54593-187.448206 0-115.479081 96.092545-209.435986 214.217896-209.435986s214.217896 93.956905 214.217896 209.435986c0 70.693062-36.063357 135.947252-96.459912 174.904519-8.589632 3.388167-15.386432 10.900258-17.303085 20.639063l-21.10262 107.11867c-2.994194 15.19712 6.900154 29.937846 22.088064 32.931017 1.825578 0.36532 3.651157 0.538259 5.458315 0.538259 13.124925 0 24.844851-9.263991 27.473725-22.626323l18.671245-94.773504c73.506131-49.675376 117.253494-130.826628 117.253494-218.7317C782.296099 242.577804 661.048641 123.465986 512 123.465986z" p-id="59844" fill="#8a8a8a"></path><path d="M483.997226 229.115188c-1.588171-10.1952-11.135618-17.204847-21.357424-15.579837-90.817402 14.184047-127.162168 98.402147-133.697001 140.944056-1.569752 10.18599 5.403057 19.687388 15.589047 21.275559 0.967024 0.155543 1.953492 0.228197 2.902096 0.228197 9.035794 0 16.97665-6.580882 18.455327-15.772218 0.621147-3.924379 16.301268-96.274694 102.517885-109.74652C478.611565 248.875231 485.585397 239.310388 483.997226 229.115188z" p-id="59845" fill="#8a8a8a"></path><path d="M443.654402 533.091364c10.332323 0 18.692734-8.369621 18.692734-18.692734l0-98.437963 42.953278 34.592866c6.718005 5.421476 16.319687 5.53097 23.183002 0.209778l46.020126-35.706223 0 99.341542c0 10.323113 8.360412 18.692734 18.692734 18.692734 10.332323 0 18.692734-8.369621 18.692734-18.692734L611.889011 376.894929c0-7.137561-4.070712-13.645788-10.478655-16.785292-6.371104-3.148713-14.056134-2.363837-19.678178 2.016937l-64.493873 50.03558-61.865-49.825802c-5.586229-4.517897-13.289678-5.412266-19.787672-2.300392-6.499018 3.103688-10.623965 9.656941-10.623965 16.857946L424.961668 514.39863C424.961668 524.721743 433.32208 533.091364 443.654402 533.091364z" p-id="59846" fill="#8a8a8a"></path></svg>