<?xml version="1.0" standalone="no"?><!DOCTYPE svg PUBLIC "-//W3C//DTD SVG 1.1//EN" "http://www.w3.org/Graphics/SVG/1.1/DTD/svg11.dtd"><svg t="1622998709361" class="icon" viewBox="0 0 1365 1024" version="1.1" xmlns="http://www.w3.org/2000/svg" p-id="16015" xmlns:xlink="http://www.w3.org/1999/xlink" width="85.3125" height="64"><defs><style type="text/css"></style></defs><path d="M146.773333 812.373333c-44.117333 0-67.84 20.394667-71.253333 61.098667l-0.426667 10.581333c0 47.786667 23.893333 71.68 71.68 71.68h716.8c44.117333 0 67.84-20.394667 71.253334-61.098666l0.426666-10.581334c0-47.786667-23.893333-71.68-71.68-71.68h-716.8z m884.053334-444.501333v267.946667c0 29.696 23.893333 41.557333 52.309333 26.965333l260.778667-134.058667c28.842667-14.848 28.245333-39.168 0-53.76l-260.778667-133.973333c-28.842667-14.848-52.309333-3.413333-52.309333 26.88zM146.773333 382.293333c-44.117333 0-67.84 20.394667-71.253333 61.098667L75.093333 453.973333c0 47.786667 23.893333 71.68 71.68 71.68h716.8c44.117333 0 67.84-20.394667 71.253334-61.098666l0.426666-10.581334c0-47.786667-23.893333-71.68-71.68-71.68h-716.8z m0-382.293333C102.656 0 78.933333 20.394667 75.52 61.098667L75.093333 71.68c0 47.786667 23.893333 71.68 71.68 71.68h716.8c44.117333 0 67.84-20.394667 71.253334-61.098667L935.253333 71.68c0-47.786667-23.893333-71.68-71.68-71.68h-716.8z" fill="#d81e06" p-id="16016"></path></svg>