<?xml version="1.0" standalone="no"?><!DOCTYPE svg PUBLIC "-//W3C//DTD SVG 1.1//EN" "http://www.w3.org/Graphics/SVG/1.1/DTD/svg11.dtd"><svg t="1624116672218" class="icon" viewBox="0 0 1024 1024" version="1.1" xmlns="http://www.w3.org/2000/svg" p-id="3950" width="16" height="16" xmlns:xlink="http://www.w3.org/1999/xlink"><defs><style type="text/css"></style></defs><path d="M510.72 96a416 416 0 1 0 416 416 416 416 0 0 0-416-416z m202.24 544a52 52 0 0 1-73.6 73.6l-128-128-128 128a52 52 0 0 1-73.6-73.6l128-128-128-128a52 52 0 1 1 73.6-73.6l128 128 128-128a52 52 0 1 1 73.6 73.6l-128 128z" fill="#515151" p-id="3951"></path></svg>