<?xml version="1.0" standalone="no"?><!DOCTYPE svg PUBLIC "-//W3C//DTD SVG 1.1//EN" "http://www.w3.org/Graphics/SVG/1.1/DTD/svg11.dtd"><svg t="1624611854171" class="icon" viewBox="0 0 1169 1024" version="1.1" xmlns="http://www.w3.org/2000/svg" p-id="1238" width="36.53125" height="32" xmlns:xlink="http://www.w3.org/1999/xlink"><defs><style type="text/css"></style></defs><path d="M1066.458426 101.074084a351.505745 351.505745 0 0 0-482.017804-10.604392 351.505745 351.505745 0 0 0-482.017804 10.604392 344.298431 344.298431 0 0 0 0 490.005527l403.976827 400.120684a109.624621 109.624621 0 0 0 156.4033 0l403.976827-399.753432a344.298431 344.298431 0 0 0 0-490.372779z m-52.241548 438.498482l-403.976827 400.120684a36.725166 36.725166 0 0 1-51.874297 0l-404.114545-400.16659a271.858041 271.858041 0 0 1 0-386.945531 277.366816 277.366816 0 0 1 380.380907-6.197372l49.716693 42.738912 49.349442-42.738912a277.366816 277.366816 0 0 1 380.380907 8.03363 271.858041 271.858041 0 0 1 0 385.155179z" fill="#E1241A" p-id="1239"></path></svg>