<?xml version="1.0" standalone="no"?><!DOCTYPE svg PUBLIC "-//W3C//DTD SVG 1.1//EN" "http://www.w3.org/Graphics/SVG/1.1/DTD/svg11.dtd"><svg t="1623357844361" class="icon" viewBox="0 0 1024 1024" version="1.1" xmlns="http://www.w3.org/2000/svg" p-id="9742" xmlns:xlink="http://www.w3.org/1999/xlink" width="200" height="200"><defs><style type="text/css"></style></defs><path d="M465.6 400c-9.6 0-16-6.4-16-16v-32c0-9.6 6.4-16 16-16s16 6.4 16 16v32c0 9.6-6.4 16-16 16zM560 400c-9.6 0-16-6.4-16-16v-32c0-9.6 6.4-16 16-16s16 6.4 16 16v32c0 9.6-6.4 16-16 16zM828.8 499.2c-6.4-6.4-16-11.2-27.2-9.6 0 0-67.2 8-140.8 9.6-46.4 3.2-92.8 0-137.6-9.6-6.4-1.6-12.8-1.6-19.2 1.6-17.6 6.4-52.8 14.4-124.8 11.2-48-1.6-94.4-6.4-142.4-12.8-17.6-3.2-33.6 9.6-36.8 27.2v9.6l35.2 270.4c1.6 16 16 28.8 32 28.8h201.6c28.8 22.4 68.8 22.4 97.6 0h203.2c16 0 30.4-11.2 32-28.8l35.2-270.4c3.2-9.6 0-19.2-8-27.2z m-84.8 262.4H548.8c-1.6 0-1.6 0-3.2 1.6l-3.2 1.6-3.2 1.6-3.2 1.6-3.2 3.2h-1.6c-3.2 3.2-8 4.8-12.8 4.8-4.8 0-9.6-1.6-12.8-4.8l-1.6-3.2-1.6-1.6-3.2-1.6H496l-3.2-1.6-3.2-1.6H296L270.4 560c28.8 3.2 67.2 6.4 108.8 8 46.4 3.2 94.4-1.6 139.2-12.8 48 8 97.6 11.2 145.6 9.6 40-1.6 78.4-3.2 105.6-6.4l-25.6 203.2z" p-id="9743" fill="#8a8a8a"></path><path d="M380.8 456h27.2c-1.6-3.2-3.2-4.8-4.8-6.4-56-64-49.6-161.6 14.4-217.6s161.6-49.6 217.6 14.4c49.6 57.6 51.2 142.4 1.6 200-1.6 1.6-3.2 4.8-4.8 6.4h27.2c17.6 0 33.6-1.6 49.6-1.6 56-105.6 16-238.4-89.6-294.4s-238.4-16-294.4 89.6c-35.2 65.6-33.6 142.4 1.6 208 19.2 0 35.2 1.6 54.4 1.6z" p-id="9744" fill="#8a8a8a"></path></svg>