<?xml version="1.0" standalone="no"?><!DOCTYPE svg PUBLIC "-//W3C//DTD SVG 1.1//EN" "http://www.w3.org/Graphics/SVG/1.1/DTD/svg11.dtd"><svg t="1623984656085" class="icon" viewBox="0 0 1024 1024" version="1.1" xmlns="http://www.w3.org/2000/svg" p-id="2484" width="16" height="16" xmlns:xlink="http://www.w3.org/1999/xlink"><defs><style type="text/css"></style></defs><path d="M832.2 673.9h-34V496.5c0-73.8-56.3-134.6-128.1-141.9l0.1-57.7c0-16.6-13.4-30-30-30-16.5 0-30 13.4-30 30l-0.1 57.1h-68.7v-57c0-16.6-13.4-30-30-30s-30 13.4-30 30v57h-67.3v-57c0-16.6-13.4-30-30-30s-30 13.4-30 30v57.8c-71.8 7.4-128 68.2-128 141.9v177.4h-34c-16.6 0-30 13.4-30 30s13.4 30 30 30h59.5a34.013 34.013 0 0 0 9 0h503.1a34.013 34.013 0 0 0 9 0h59.5c16.6 0 30-13.4 30-30s-13.5-30.2-30-30.2zM368.7 413.8h13.4c0.6 0 1.3 0.1 1.9 0.1s1.3 0 1.9-0.1h123.4c0.6 0 1.3 0.1 1.9 0.1s1.3 0 1.9-0.1h123.3c1.1 0.1 2.3 0.2 3.5 0.2 1.2 0 2.4-0.1 3.5-0.2h12c45.6 0 82.7 37.1 82.7 82.7v53.7c-8.2 7.2-19.9 10.9-34.8 10.9-16.1 0-28.3-4.3-36.3-12.7-11.3-12-12-29.7-12-34.3 0.1-1.1 0.1-1.9 0.1-2.2 0-8.1-6.4-14.7-14.5-15-8.1-0.3-14.9 5.9-15.5 14 0 0.2-0.1 0.9-0.1 2-0.2 3.3-1.2 14.6-6.8 25.3-8 15.5-21.8 23-42.2 23-14.8 0-26.4-4-34.3-12-13.7-13.7-13.8-35.5-13.8-35.6v-0.2c0-8.2-6.6-14.9-14.8-15h-0.2c-8.2 0-14.9 6.5-15 14.7 0 0.4-0.5 13.3-7.2 25.5-8.3 15.2-22.3 22.6-42.8 22.6-20.4 0-34.2-7.3-42.2-22.4-6.6-12.3-6.8-25.3-6.8-25.4 0-7.8-5.9-14.3-13.7-15-7.7-0.7-14.7 4.7-16.1 12.3-0.4 2.1-9.7 50.5-50 50.5-15.3 0-26-7.1-33.3-15.9v-48.7c0.2-45.7 37.3-82.8 82.9-82.8zM286 583.3c9.9 5.1 21.1 7.7 33.3 7.7 25.8 0 47.3-11.8 62.4-34.1 10.2 16.7 29.7 34.1 66.3 34.1 34.1 0 53.4-15.1 64.4-30.6 2.2 3.3 4.8 6.5 7.8 9.5 13.8 14 32.6 21.1 55.8 21.1 33 0 52-14.4 63-29.7 1.7 2.5 3.7 4.9 5.9 7.3 13.9 14.8 33.5 22.4 58.3 22.4 13 0 24.7-2.1 34.8-6.2v89H286v-90.5z" fill="#2c2c2c" p-id="2485"></path><path d="M384.1 223.1m-30 0a30 30 0 1 0 60 0 30 30 0 1 0-60 0Z" fill="#2c2c2c" p-id="2486"></path><path d="M513 223.1m-30 0a30 30 0 1 0 60 0 30 30 0 1 0-60 0Z" fill="#2c2c2c" p-id="2487"></path><path d="M640 223.1m-30 0a30 30 0 1 0 60 0 30 30 0 1 0-60 0Z" fill="#2c2c2c" p-id="2488"></path></svg>