<?xml version="1.0" standalone="no"?><!DOCTYPE svg PUBLIC "-//W3C//DTD SVG 1.1//EN" "http://www.w3.org/Graphics/SVG/1.1/DTD/svg11.dtd"><svg t="1623909946092" class="icon" viewBox="0 0 1024 1024" version="1.1" xmlns="http://www.w3.org/2000/svg" p-id="3113" width="16" height="16" xmlns:xlink="http://www.w3.org/1999/xlink"><defs><style type="text/css"></style></defs><path d="M545.1776 232.2944a27.3408 27.3408 0 0 1-15.0016-4.608 25.5488 25.5488 0 0 1-9.9328-12.1856 26.7776 26.7776 0 0 1-1.536-15.616 28.16 28.16 0 0 1 3.9936-9.7792 24.2688 24.2688 0 0 1 3.2768-4.096 30.3104 30.3104 0 0 1 8.9088-5.7856v-0.0512a28.672 28.672 0 0 1 15.6672-1.536 27.5968 27.5968 0 0 1 5.0688 1.536 29.184 29.184 0 0 1 8.8064 5.7344 23.9104 23.9104 0 0 1 3.2256 4.096 26.1632 26.1632 0 0 1 4.0448 9.728 25.2416 25.2416 0 0 1 0 10.5984 24.6272 24.6272 0 0 1-4.0448 9.728 23.9104 23.9104 0 0 1-3.2256 4.096 27.3408 27.3408 0 0 1-13.9264 7.3216 28.8256 28.8256 0 0 1-5.3248 0.512v0.3072zM332.8 181.1456a27.0848 27.0848 0 0 1-19.1488-46.1824A155.8016 155.8016 0 0 1 517.12 120.832a27.0848 27.0848 0 1 1-32.768 43.1616 101.4784 101.4784 0 0 0-132.352 9.216 26.8288 26.8288 0 0 1-19.1488 7.8848H332.8z" fill="#2c2c2c" p-id="3114"></path><path d="M596.48 71.5776a244.736 244.736 0 0 0-364.0832 325.888l-112.64 112.64V473.6a27.136 27.136 0 1 0-54.1696 0v101.7344c0 14.9504 12.1344 27.0848 27.136 27.0848h101.632a27.136 27.136 0 1 0 0-54.1696h-36.4032l112.5888-112.64a244.736 244.736 0 0 0 397.568-190.8736 242.9952 242.9952 0 0 0-71.68-173.056v-0.1536zM558.08 379.4432a190.6176 190.6176 0 1 1 55.808-134.656 189.44 189.44 0 0 1-55.808 134.8096V379.392zM481.1264 843.9808a30.208 30.208 0 0 1-10.3936-2.048 26.368 26.368 0 0 1-4.608-2.56 25.7024 25.7024 0 0 1-4.1472-3.2256 27.8528 27.8528 0 0 1-5.7856-8.8064 27.136 27.136 0 0 1-1.536-15.6672 27.648 27.648 0 0 1 4.0448-9.728 24.064 24.064 0 0 1 7.3728-7.3728 30.208 30.208 0 0 1 9.728-4.0448 26.1632 26.1632 0 0 1 10.5984 0 27.8528 27.8528 0 0 1 9.728 4.0448 23.9104 23.9104 0 0 1 7.3728 7.3728 29.9008 29.9008 0 0 1 4.096 9.728 29.44 29.44 0 0 1 0 10.5984 28.5184 28.5184 0 0 1-7.3728 13.824 27.8528 27.8528 0 0 1-8.8064 5.7856 25.9584 25.9584 0 0 1-10.3424 2.048z m121.6512 88.3712a154.368 154.368 0 0 1-93.4912-31.232 27.0848 27.0848 0 1 1 32.768-43.2128c40.2432 30.208 96.6144 26.368 132.352-9.1136a27.0848 27.0848 0 0 1 38.2976 38.2976 155.2384 155.2384 0 0 1-109.9264 45.2608z" fill="#2c2c2c" p-id="3115"></path><path d="M958.0032 534.4256l-36.864-36.864 31.232-31.232a27.0848 27.0848 0 0 0-38.2464-38.2464l-31.1808 31.1808-36.864-36.864a27.136 27.136 0 1 0-38.4 38.4l36.864 36.864-88.7296 88.7808a244.5824 244.5824 0 1 0 38.2976 37.9904l88.7808-88.7296 36.7616 37.0176a27.0848 27.0848 0 0 0 38.2976-38.2976h0.0512z m-220.2624 377.7536a190.5664 190.5664 0 1 1 0-269.5168 190.5664 190.5664 0 0 1 0 269.5168z" fill="#2c2c2c" p-id="3116"></path></svg>