<?xml version="1.0" standalone="no"?><!DOCTYPE svg PUBLIC "-//W3C//DTD SVG 1.1//EN" "http://www.w3.org/Graphics/SVG/1.1/DTD/svg11.dtd"><svg t="1623899424902" class="icon" viewBox="0 0 1024 1024" version="1.1" xmlns="http://www.w3.org/2000/svg" p-id="5376" width="16" height="16" xmlns:xlink="http://www.w3.org/1999/xlink"><defs><style type="text/css"></style></defs><path d="M783.11296 388.16384h-71.70048c0-115.136-87.96928-203.07584-200.17024-203.07584-112.25216 0-200.17024 87.94368-200.17024 203.07584h-71.77856c0-138.21312 121.92-274.80448 271.872-274.80448 149.87136 0 271.94752 136.66816 271.94752 274.80448m90.93376 117.83552c0-39.47904-32.17408-71.70176-71.72736-71.70176H227.92448c-39.5072 0-71.72736 32.11776-71.72736 71.70176v340.39936c0 39.50976 32.11776 71.72736 71.72736 71.72736h574.31296c39.5072 0 71.72608-32.14592 71.72608-71.72736V505.99936h0.0832zM571.9424 772.23808c0 29.60384-23.99744 53.83296-53.83936 53.83296h-7.72608c-29.60128 0-53.83424-23.97056-53.83424-53.83296V626.40256c0-29.65504 23.97056-53.88928 53.83424-53.88928h7.72608c29.63072 0 53.83936 23.97056 53.83936 53.88928v145.83552z" p-id="5377" fill="#2c2c2c"></path></svg>