<?xml version="1.0" standalone="no"?><!DOCTYPE svg PUBLIC "-//W3C//DTD SVG 1.1//EN" "http://www.w3.org/Graphics/SVG/1.1/DTD/svg11.dtd"><svg t="1623899314384" class="icon" viewBox="0 0 1024 1024" version="1.1" xmlns="http://www.w3.org/2000/svg" p-id="2483" width="16" height="16" xmlns:xlink="http://www.w3.org/1999/xlink"><defs><style type="text/css"></style></defs><path d="M266.24 344.064c0 133.12 108.544 241.664 245.76 241.664s245.76-108.544 245.76-241.664S647.168 102.4 512 102.4s-245.76 108.544-245.76 241.664z" fill="#353535" p-id="2484"></path><path d="M747.52 585.728c-18.432-14.336-47.104-14.336-65.536 4.096-45.056 43.008-106.496 71.68-172.032 71.68s-129.024-26.624-172.032-71.68c-18.432-18.432-45.056-20.48-65.536-4.096-75.776 61.44-131.072 143.36-149.504 253.952-6.144 45.056 24.576 81.92 71.68 81.92h632.832c45.056 0 79.872-36.864 71.68-81.92-18.432-110.592-73.728-190.464-151.552-253.952z" fill="#353535" p-id="2485"></path></svg>