<?xml version="1.0" standalone="no"?><!DOCTYPE svg PUBLIC "-//W3C//DTD SVG 1.1//EN" "http://www.w3.org/Graphics/SVG/1.1/DTD/svg11.dtd"><svg t="1623030392675" class="icon" viewBox="0 0 1024 1024" version="1.1" xmlns="http://www.w3.org/2000/svg" p-id="60902" xmlns:xlink="http://www.w3.org/1999/xlink" width="64" height="64"><defs><style type="text/css"></style></defs><path d="M637.322264 826.570465 431.702186 826.570465c-15.479553 0-28.039613 12.549827-28.039613 28.039613s12.559037 28.039613 28.039613 28.039613l205.620078 0c15.479553 0 28.039613-12.549827 28.039613-28.039613S652.80284 826.570465 637.322264 826.570465z" p-id="60903" fill="#f4ea2a"></path><path d="M581.244061 920.034137l-93.463672 0c-15.479553 0-28.039613 12.549827-28.039613 28.039613s12.559037 28.039613 28.039613 28.039613l93.463672 0c15.479553 0 28.039613-12.549827 28.039613-28.039613S596.724637 920.034137 581.244061 920.034137z" p-id="60904" fill="#f4ea2a"></path><path d="M521.930163 199.045335c-149.049664 0-270.297123 119.111818-270.297123 265.514189 0 95.389534 50.822502 181.629687 133.798309 229.214449l15.231913 83.880409c2.445702 13.544481 14.256702 23.037692 27.54638 23.037692 1.660826 0 3.358491-0.155543 5.03876-0.456395 15.242146-2.774183 25.355481-17.369599 22.581298-32.602535l-17.633612-97.105618c-1.408069-7.78122-5.957689-14.184047-12.06785-18.254759l0.128937-0.265036C353.129666 616.246249 307.712267 544.422434 307.712267 464.558501c0-115.479081 96.092545-209.435986 214.217896-209.435986s214.217896 93.956905 214.217896 209.435986c0 70.693062-36.063357 135.947252-96.459912 174.904519-8.589632 3.388167-15.386432 10.900258-17.303085 20.639063l-21.10262 107.11867c-2.994194 15.19712 6.900154 29.937846 22.088064 32.931017 1.825578 0.36532 3.651157 0.538259 5.458315 0.538259 13.124925 0 24.844851-9.263991 27.473725-22.626323l18.671245-94.773504c73.506131-49.675376 117.253494-130.826628 117.253494-218.7317C792.227286 318.15613 670.979828 199.045335 521.930163 199.045335z" p-id="60905" fill="#f4ea2a"></path><path d="M493.927389 304.693514c-1.588171-10.1952-11.135618-17.204847-21.358447-15.579837-90.817402 14.184047-127.162168 98.402147-133.697001 140.944056-1.569752 10.18599 5.403057 19.687388 15.589047 21.275559 0.967024 0.155543 1.953492 0.228197 2.902096 0.228197 9.035794 0 16.97665-6.580882 18.455327-15.772218 0.621147-3.924379 16.301268-96.274694 102.517885-109.74652C488.542752 324.45458 495.51556 314.888713 493.927389 304.693514z" p-id="60906" fill="#f4ea2a"></path><path d="M453.584566 608.66969c10.332323 0 18.692734-8.369621 18.692734-18.692734l0-98.437963 42.953278 34.592866c6.718005 5.421476 16.319687 5.53097 23.183002 0.209778l46.020126-35.706223 0 99.341542c0 10.323113 8.360412 18.692734 18.692734 18.692734 10.332323 0 18.692734-8.369621 18.692734-18.692734L621.819175 452.474278c0-7.137561-4.070712-13.645788-10.478655-16.785292-6.371104-3.148713-14.056134-2.363837-19.678178 2.016937l-64.493873 50.03558-61.865-49.825802c-5.586229-4.517897-13.289678-5.412266-19.787672-2.300392-6.499018 3.103688-10.623965 9.656941-10.623965 16.857946l0 137.502677C434.891831 600.300069 443.253266 608.66969 453.584566 608.66969z" p-id="60907" fill="#f4ea2a"></path><path d="M171.312714 279.18249l71.777767 41.437761c2.938935 1.697665 6.152117 2.50096 9.328459 2.50096 6.462179 0 12.742209-3.349281 16.210193-9.346879 5.16565-8.944719 2.098801-20.37198-6.845918-25.538653l-71.777767-41.437761c-8.944719-5.15644-20.37198-2.117221-25.538653 6.845918C159.301146 262.58958 162.367994 274.016841 171.312714 279.18249z" p-id="60908" fill="#f4ea2a"></path><path d="M879.04663 644.61332l-71.777767-41.437761c-8.9263-5.15644-20.37198-2.108011-25.538653 6.845918-5.16565 8.944719-2.098801 20.37198 6.845918 25.538653l71.777767 41.437761c2.938935 1.697665 6.152117 2.50096 9.328459 2.50096 6.462179 0 12.742209-3.349281 16.210193-9.346879C891.058199 661.207253 887.99135 649.779993 879.04663 644.61332z" p-id="60909" fill="#f4ea2a"></path><path d="M502.653121 160.044066c10.332323 0 18.692734-8.369621 18.692734-18.692734L521.345856 66.580394c0-10.323113-8.360412-18.692734-18.692734-18.692734-10.332323 0-18.692734 8.369621-18.692734 18.692734l0 74.770937C483.960387 151.674445 492.320798 160.044066 502.653121 160.044066z" p-id="60910" fill="#f4ea2a"></path><path d="M351.523075 198.496843c3.467985 5.996574 9.748015 9.346879 16.210193 9.346879 3.176342 0 6.389524-0.803295 9.328459-2.50096 8.944719-5.16565 12.011568-16.593933 6.845918-25.538653l-41.437761-71.777767c-5.184069-8.953929-16.629749-12.011568-25.538653-6.845918-8.944719 5.16565-12.011568 16.593933-6.845918 25.538653L351.523075 198.496843z" p-id="60911" fill="#f4ea2a"></path><path d="M222.262106 440.435081c0-10.323113-8.360412-18.692734-18.692734-18.692734l-93.463672 0c-10.332323 0-18.692734 8.369621-18.692734 18.692734s8.360412 18.692734 18.692734 18.692734l93.463672 0C213.901695 459.127815 222.262106 450.758194 222.262106 440.435081z" p-id="60912" fill="#f4ea2a"></path><path d="M913.8943 421.742347l-93.463672 0c-10.332323 0-18.692734 8.369621-18.692734 18.692734s8.360412 18.692734 18.692734 18.692734l93.463672 0c10.332323 0 18.692734-8.369621 18.692734-18.692734S924.226622 421.742347 913.8943 421.742347z" p-id="60913" fill="#f4ea2a"></path><path d="M243.090481 603.175559l-71.777767 41.437761c-8.944719 5.16565-12.011568 16.593933-6.845918 25.538653 3.467985 5.996574 9.748015 9.346879 16.210193 9.346879 3.176342 0 6.389524-0.803295 9.328459-2.50096l71.777767-41.437761c8.944719-5.16565 12.011568-16.593933 6.845918-25.538653C263.444041 601.067548 251.998361 598.018096 243.090481 603.175559z" p-id="60914" fill="#f4ea2a"></path><path d="M797.940404 323.122235c3.176342 0 6.389524-0.803295 9.328459-2.50096l71.777767-41.437761c8.944719-5.16565 12.011568-16.593933 6.845918-25.538653-5.184069-8.963139-16.648169-12.002358-25.538653-6.845918l-71.777767 41.437761c-8.944719 5.16565-12.011568 16.593933-6.845918 25.538653C785.199219 319.771931 791.478226 323.122235 797.940404 323.122235z" p-id="60915" fill="#f4ea2a"></path><path d="M673.316036 205.342762c2.938935 1.697665 6.152117 2.50096 9.328459 2.50096 6.462179 0 12.742209-3.349281 16.210193-9.346879l41.437761-71.777767c5.16565-8.944719 2.099824-20.37198-6.845918-25.538653-8.944719-5.16565-20.37198-2.108011-25.538653 6.845918l-41.437761 71.777767C661.304468 188.748828 664.371316 200.177112 673.316036 205.342762z" p-id="60916" fill="#f4ea2a"></path></svg>